Coordinates
version=1
nRows=21
nColumns=33
inDegrees=yes

Units are S.I. units (second, meters, Newtons, ...)
Angles are in degrees.

endheader
time	ground_thorax_rot_x	ground_thorax_rot_y	ground_thorax_rot_z	ground_thorax_tx	ground_thorax_ty	ground_thorax_tz	clav_prot_r	clav_elev_r	scapula_abduction_r	scapula_elevation_r	scapula_upward_rot_r	scapula_winging_r	shoulder_elv_r	plane_of_elev_r	axial_rot_r	elbow_flexion_r	pro_sup_r	wrist_flex_r	wrist_dev_r	clav_prot_l	clav_elev_l	scapula_abduction_l	scapula_elevation_l	scapula_upward_rot_l	scapula_winging_l	shoulder_elv_l	plane_of_elev_l	axial_rot_l	elbow_flexion_l	pro_sup_l	wrist_flex_l	wrist_dev_l
      2.09000000	     20.02012154	     40.35138625	      8.24956127	     -0.00790899	      1.01430774	     -0.04227704	    -18.41922801	     34.44312991	    -20.22603801	     25.30588099	     45.00000000	     -9.60134176	     -8.07779809	    -90.00000000	     25.61474899	     72.88613855	     -4.17407157	     41.21214592	    -20.40552881	     17.96143291	     -7.81385539	    -45.00000000	      2.30098023	      8.74504297	     20.12898508	     34.10256668	    -52.85654001	    -49.19354187	     72.62114394	     29.65180271	      3.83362188	    -24.99999158
      2.10000000	     19.47103738	     39.81873862	      8.64233118	     -0.00829577	      1.01275161	     -0.04348822	    -18.13282486	     34.39395832	    -19.49087160	     25.29824132	     45.00000000	     -9.53867319	     -8.02551504	    -90.00000000	     25.56371334	     73.19179667	     -1.65578525	     38.67893361	    -20.58421166	     17.85169529	     -5.80703025	    -45.00000000	      0.75242566	      8.86200606	     20.98810248	     32.41222617	    -51.91718744	    -48.85121898	     71.56027435	     26.21074771	      3.56651736	    -24.42992304
      2.11000000	     19.50290668	     39.83534216	      8.69448610	     -0.00835444	      1.01238278	     -0.04330012	    -18.14009061	     34.37466104	    -19.47510055	     25.27970606	     45.00000000	     -9.54918439	     -8.01544303	    -90.00000000	     25.55364342	     73.19713102	     -1.65237443	     38.68158461	    -20.58593907	     17.84960607	     -5.80873492	    -45.00000000	      0.75640497	      8.87000761	     20.98752124	     32.41851940	    -51.91054382	    -48.84408450	     71.56937094	     26.20615492	      3.56496392	    -24.43262745
      2.12000000	     19.45244774	     39.86210047	      8.82699371	     -0.00878284	      1.01238958	     -0.04334295	    -18.15487540	     34.31931605	    -19.41643442	     25.22640520	     45.00000000	     -9.57661766	     -7.93705676	    -90.00000000	     25.47526949	     73.20601854	     -1.64130456	     38.70134310	    -20.60252920	     17.85306119	     -5.86068962	    -45.00000000	      0.79606425	      8.86512002	     20.96515063	     32.39653184	    -51.88864281	    -48.82870196	     71.60816056	     26.18347163	      3.56949606	    -24.44425214
      2.13000000	     19.34482164	     39.67223008	      9.03224523	     -0.00873867	      1.01292745	     -0.04281520	    -18.16279410	     34.15215933	    -19.15716153	     25.07420378	     45.00000000	     -9.64900098	     -7.82990622	    -90.00000000	     25.36879239	     72.87503395	     -0.81487926	     39.30043049	    -20.57083066	     17.99249526	     -6.39090210	    -45.00000000	      1.08746634	      8.41215562	     20.78365394	     32.90550708	    -52.34005848	    -48.33399494	     71.96037009	     25.40104429	      4.25328680	    -24.58178190
      2.14000000	     19.33472207	     39.72367913	      9.12963747	     -0.00904137	      1.01287223	     -0.04282145	    -18.15871729	     34.12314233	    -19.10069900	     25.04828535	     45.00000000	     -9.66092955	     -7.75276475	    -90.00000000	     25.29166013	     72.88957462	     -0.82159324	     39.30452628	    -20.58644978	     17.98596047	     -6.40836573	    -45.00000000	      1.10859786	      8.43880348	     20.77403256	     32.89699566	    -52.29524318	    -48.32557433	     71.98057090	     25.39014054	      4.26038773	    -24.58078529
      2.15000000	     19.31882152	     39.74174049	      9.23749064	     -0.00932732	      1.01285249	     -0.04276221	    -18.15553024	     34.08572644	    -19.03322596	     25.01520114	     45.00000000	     -9.67470426	     -7.65252512	    -90.00000000	     25.19143020	     72.90335977	     -0.83118255	     39.31116017	    -20.59949842	     17.98082727	     -6.42957945	    -45.00000000	      1.13183128	      8.46087303	     20.76210818	     32.88674789	    -52.24720084	    -48.32118445	     72.00258490	     25.37830041	      4.27873702	    -24.57684922
      2.16000000	     19.29740257	     39.74798829	      9.34931900	     -0.00959927	      1.01289203	     -0.04272079	    -18.14732670	     34.04606241	    -18.94828603	     24.97913346	     45.00000000	     -9.68990958	     -7.53728789	    -90.00000000	     25.07620268	     72.92246329	     -0.84287248	     39.31913132	    -20.60568588	     17.97554349	     -6.45389488	    -45.00000000	      1.15619276	      8.48363700	     20.75206499	     32.88112148	    -52.19485030	    -48.31580614	     72.02789147	     25.36511028	      4.30743905	    -24.56920993
      2.17000000	     19.26529546	     39.75339378	      9.45984184	     -0.00984172	      1.01293073	     -0.04271402	    -18.13295266	     34.00576625	    -18.85070092	     24.94519270	     45.00000000	     -9.70249651	     -7.41929505	    -90.00000000	     24.95821831	     72.95175091	     -0.85615261	     39.32637352	    -20.60361677	     17.96931655	     -6.48086721	    -45.00000000	      1.18548817	      8.51063113	     20.73832432	     32.87754717	    -52.13377626	    -48.30850934	     72.05903726	     25.35112977	      4.34173368	    -24.55927028
      2.18000000	     19.31631089	     39.66512827	      9.43231923	     -0.01017252	      1.01299181	     -0.04245000	    -18.13228398	     33.97327508	    -18.79575675	     24.91515215	     45.00000000	     -9.71490415	     -6.98961534	    -90.00000000	     24.52943836	     73.21296088	     -1.06153608	     38.82292800	    -18.94074820	     18.10348145	     -6.67817108	    -45.00000000	      1.20772263	      8.03049173	     20.69443997	     33.14268956	    -51.72657571	    -47.82867715	     72.55945463	     24.46155243	      6.67212212	    -23.61735253
      2.19000000	     19.26556885	     39.71469567	      9.55323205	     -0.01041704	      1.01297958	     -0.04247226	    -18.10772498	     33.94715040	    -18.69820324	     24.89522495	     45.00000000	     -9.71969806	     -6.89804837	    -90.00000000	     24.43787797	     73.26501383	     -1.08155322	     38.83073331	    -18.95520274	     18.08957125	     -6.71045586	    -45.00000000	      1.24900278	      8.08835343	     20.67591020	     33.14854782	    -51.63699444	    -47.80947935	     72.60347539	     24.44805337	      6.66835081	    -23.62251938
      2.20000000	     19.19923798	     39.74112309	      9.68975834	     -0.01069277	      1.01304650	     -0.04250408	    -18.08630838	     33.90768231	    -18.58645300	     24.86229514	     45.00000000	     -9.72936230	     -6.78771543	    -90.00000000	     24.32755214	     73.34142852	     -1.10842762	     38.83267242	    -18.96224847	     18.07766010	     -6.75835710	    -45.00000000	      1.30122668	      8.14023694	     20.65182875	     33.14035391	    -51.53294484	    -47.80039715	     72.64793398	     24.43283597	      6.67678609	    -23.62245742
      2.21000000	     19.12643930	     39.76953659	      9.82827106	     -0.01092194	      1.01310020	     -0.04257766	    -18.06143223	     33.86652652	    -18.46272783	     24.82793708	     45.00000000	     -9.74041887	     -6.67439683	    -90.00000000	     24.21423939	     73.43274129	     -1.13809582	     38.82774506	    -18.96131046	     18.06523813	     -6.81124233	    -45.00000000	      1.35805874	      8.19455820	     20.62387653	     33.13726974	    -51.42091192	    -47.78763210	     72.68515267	     24.41689087	      6.69221026	    -23.61524715
      2.22000000	     19.23924392	     39.74132354	      9.81951296	     -0.01134832	      1.01288965	     -0.04209804	    -18.04080238	     33.95553952	    -18.55894143	     24.91058857	     45.00000000	     -9.69388710	     -6.24002703	    -90.00000000	     23.78090885	     74.49021987	     -2.85367616	     36.90535481	    -16.86714568	     18.37459040	     -7.17380465	    -45.00000000	      1.32629849	      7.06087240	     20.56103140	     33.73819628	    -50.43030889	    -47.38513838	     73.20248613	     23.14538647	      8.52752911	    -22.55512188
      2.23000000	     19.15355522	     39.81494988	      9.96575236	     -0.01154756	      1.01286388	     -0.04225117	    -18.00689753	     33.91972916	    -18.42489286	     24.88283138	     45.00000000	     -9.70251057	     -6.14371860	    -90.00000000	     23.68460550	     74.55826797	     -2.87472998	     36.91881107	    -16.87800228	     18.35632122	     -7.23577039	    -45.00000000	      1.39735185	      7.14133192	     20.52686842	     33.73326365	    -50.29309347	    -47.36158553	     73.24922682	     23.12982392	      8.52070886	    -22.55703569
      2.24000000	     19.05331077	     39.87408736	     10.12882490	     -0.01172228	      1.01287498	     -0.04237129	    -17.98018275	     33.86913007	    -18.28257842	     24.84010890	     45.00000000	     -9.71652874	     -6.04223433	    -90.00000000	     23.58312530	     74.65146312	     -2.89932937	     36.92389992	    -16.88111681	     18.33927969	     -7.31598105	    -45.00000000	      1.48344015	      7.22213406	     20.48421102	     33.71654353	    -50.13515083	    -47.33869781	     73.29236572	     23.11215214	      8.52254336	    -22.55032728
      2.25000000	     19.14020724	     39.88727691	      9.96777097	     -0.01226964	      1.01290231	     -0.04216951	    -18.01370143	     33.76346412	    -18.18964567	     24.74048061	     45.00000000	     -9.76934831	     -5.69086850	    -90.00000000	     23.23258989	     75.49892898	     -4.57655949	     35.17523416	    -15.28759215	     18.64506395	     -7.66033282	    -45.00000000	      1.42898159	      6.07538461	     20.42656207	     34.25936463	    -48.81567148	    -46.86554529	     73.65473925	     21.82782635	     10.09716851	    -21.28291009
      2.26000000	     19.01826106	     39.98655692	     10.14990303	     -0.01237655	      1.01277510	     -0.04234334	    -17.98279056	     33.72291362	    -18.05547165	     24.70728803	     45.00000000	     -9.77838002	     -5.59179032	    -90.00000000	     23.13351665	     75.58196364	     -4.59544852	     35.19626161	    -15.29836414	     18.62219724	     -7.74142916	    -45.00000000	      1.52374588	      6.18193537	     20.38039320	     34.24817281	    -48.63991259	    -46.82173510	     73.71528012	     21.80713909	     10.08186261	    -21.28494616
      2.27000000	     19.01449457	     40.19522062	     10.10407835	     -0.01287089	      1.01301617	     -0.04221027	    -18.09553542	     33.58196653	    -18.08873540	     24.56608897	     45.00000000	     -9.86670341	     -5.32364185	    -90.00000000	     22.86632677	     76.05488825	     -6.26080743	     34.26915951	    -14.04254130	     18.97821392	     -8.15052744	    -45.00000000	      1.45269065	      4.81472700	     20.30635895	     34.89773430	    -47.06357938	    -46.34382864	     73.96738053	     20.31315456	     11.46197115	    -20.06570626
      2.28000000	     18.87781076	     40.30255233	     10.30144127	     -0.01293656	      1.01277148	     -0.04239285	    -18.05853980	     33.53805206	    -17.93691702	     24.53091772	     45.00000000	     -9.87510325	     -5.22175839	    -90.00000000	     22.76445829	     76.14609563	     -6.27759908	     34.29159700	    -14.05454408	     18.95189347	     -8.24365642	    -45.00000000	      1.56321270	      4.94212286	     20.25325214	     34.88097067	    -46.86097780	    -46.29255872	     74.03754326	     20.29243033	     11.44189890	    -20.06962069
      2.29000000	     18.86564806	     40.49234603	     10.16244114	     -0.01344287	      1.01302539	     -0.04237868	    -18.17717362	     33.30115943	    -17.83781636	     24.30400545	     45.00000000	    -10.00468708	     -4.97111353	    -90.00000000	     22.51464403	     76.55144977	     -7.66627635	     33.32664577	    -13.03993603	     19.24969075	     -8.60249549	    -45.00000000	      1.50334301	      3.77225218	     20.18234519	     35.31554255	    -45.25429377	    -45.58038394	     74.16642775	     19.04538189	     12.77961968	    -18.78330261
